
<svg width="159" height="18" viewBox="0 0 159 18" fill="none" xmlns="http://www.w3.org/2000/svg">
              <g clip-path="url(#clip00)">
                <path d="M6.25571 10.5493V12.3265C6.25571 12.6799 5.94962 12.9689 5.57551 12.9689C5.20139 12.9689 4.8953 12.6799 4.8953 12.3265V10.5493C4.55496 10.3397 4.32946 9.97748 4.32846 9.56507C4.32689 8.91461 4.88392 8.38609 5.57264 8.3846C6.26136 8.38311 6.82097 8.9092 6.82255 9.55966C6.82355 9.97401 6.5977 10.3386 6.25571 10.5493ZM3.52536 6.35353V3.78026C3.52536 3.26725 3.73983 2.78217 4.12927 2.41436C4.51869 2.04658 5.03231 1.84403 5.57551 1.84403C6.11869 1.84403 6.63229 2.04658 7.02174 2.41436C7.41117 2.78217 7.62565 3.26725 7.62565 3.78026V6.35353H3.52538H3.52536ZM9.84932 6.35353H9.57815V3.78026C9.57815 1.70112 7.77695 0 5.57551 0H5.57549C3.37405 0 1.57286 1.70112 1.57286 3.78026V6.35353H1.30169C0.585751 6.35353 0 6.90675 0 7.58289V13.7706C0 14.4468 0.585751 15 1.30169 15H9.84932C10.5653 15 11.151 14.4468 11.151 13.7706V7.58289C11.151 6.90675 10.5653 6.35353 9.84932 6.35353Z" fill="#25AE88"></path>
              </g>
              <path fill-rule="evenodd" clip-rule="evenodd" d="M99.0715 10.146C99.0715 9.08042 98.3766 8.40097 97.4192 8.40097C96.7397 8.40097 96.122 8.78708 95.7205 9.29674L95.1337 11.8756C95.458 12.3851 96.0912 12.7403 96.8787 12.7403C98.1759 12.7403 99.0715 11.5204 99.0715 10.146ZM94.8244 13.3114L93.9751 17.141H92.0139L94.2994 6.84107H96.2605L96.0443 7.76754C96.6775 7.02638 97.4033 6.65576 98.2989 6.65576C99.9821 6.65576 101.125 7.76754 101.125 9.74422C101.125 11.9834 99.7351 14.4851 97.2025 14.4851C96.1988 14.4851 95.3186 14.0525 94.8244 13.3114Z" fill="#636363"></path>
              <path fill-rule="evenodd" clip-rule="evenodd" d="M101.65 14.2998L103.303 6.84125H105.264L105.047 7.81418C105.696 7.10377 106.499 6.65601 107.688 6.65601L107.256 8.60167C107.132 8.57079 106.854 8.50896 106.545 8.50896C105.82 8.50896 105.125 8.91052 104.692 9.40467L103.611 14.2998H101.65Z" fill="#636363"></path>
              <path fill-rule="evenodd" clip-rule="evenodd" d="M113.401 9.8525C113.417 9.82162 113.417 9.7289 113.417 9.69808C113.417 8.94141 112.861 8.26195 111.687 8.26195C110.622 8.26195 109.834 9.03406 109.68 9.8525H113.401ZM107.502 11.134C107.502 8.70965 109.324 6.65576 111.81 6.65576C113.725 6.65576 115.161 7.89114 115.161 9.97591C115.161 10.4237 115.069 10.9796 115.007 11.2112H109.463V11.3965C109.463 12.0297 110.127 12.879 111.517 12.879C112.181 12.879 112.938 12.6937 113.401 12.3385L114.003 13.7129C113.277 14.207 112.289 14.4851 111.363 14.4851C109.015 14.4851 107.502 13.2188 107.502 11.134Z" fill="#636363"></path>
              <path fill-rule="evenodd" clip-rule="evenodd" d="M115.486 13.1417L116.582 11.7673C117.03 12.2923 118.111 12.9409 119.192 12.9409C119.856 12.9409 120.273 12.5858 120.273 12.1688C120.273 11.1651 116.474 11.4122 116.474 9.17297C116.474 7.87582 117.555 6.65601 119.547 6.65601C120.813 6.65601 122.002 7.13459 122.713 7.86038L121.694 9.17297C121.338 8.70977 120.412 8.20017 119.501 8.20017C118.806 8.20017 118.42 8.50896 118.42 8.89507C118.42 9.80611 122.219 9.60542 122.219 11.8754C122.219 13.2961 121.03 14.4852 118.991 14.4852C117.632 14.4852 116.32 14.0219 115.486 13.1417Z" fill="#636363"></path>
              <path fill-rule="evenodd" clip-rule="evenodd" d="M123.036 13.1417L124.132 11.7673C124.58 12.2923 125.661 12.9409 126.742 12.9409C127.406 12.9409 127.823 12.5858 127.823 12.1688C127.823 11.1651 124.024 11.4122 124.024 9.17297C124.024 7.87582 125.105 6.65601 127.097 6.65601C128.363 6.65601 129.552 7.13459 130.263 7.86038L129.243 9.17297C128.888 8.70977 127.962 8.20017 127.051 8.20017C126.356 8.20017 125.97 8.50896 125.97 8.89507C125.97 9.80611 129.768 9.60542 129.768 11.8754C129.768 13.2961 128.579 14.4852 126.541 14.4852C125.182 14.4852 123.869 14.0219 123.036 13.1417Z" fill="#636363"></path>
              <path fill-rule="evenodd" clip-rule="evenodd" d="M130.942 14.2999L133.212 4H134.015L131.745 14.2999H130.942Z" fill="#6F6F6F"></path>
              <path fill-rule="evenodd" clip-rule="evenodd" d="M135.404 11.2734C135.404 12.8021 136.3 13.7595 137.659 13.7595C138.709 13.7595 139.682 13.0955 140.191 12.3234L140.979 8.74075C140.608 7.99958 139.713 7.38189 138.508 7.38189C136.64 7.38189 135.404 9.31218 135.404 11.2734ZM141.134 8.10734L141.397 6.84107H142.215L140.563 14.2997H139.744L140.006 13.1725C139.389 13.96 138.509 14.4851 137.443 14.4851C135.729 14.4851 134.524 13.3423 134.524 11.4274C134.524 8.91033 136.084 6.65576 138.447 6.65576C139.667 6.65576 140.624 7.25801 141.134 8.10734Z" fill="#6F6F6F"></path>
              <path fill-rule="evenodd" clip-rule="evenodd" d="M148.098 14.2998L149.21 9.2348C149.241 9.09576 149.303 8.87963 149.303 8.69432C149.303 7.76773 148.592 7.38173 147.635 7.38173C146.708 7.38173 145.751 8.01493 145.118 8.67888L143.867 14.2998H143.064L144.716 6.84125H145.519L145.272 7.9686C145.936 7.32002 146.909 6.65601 147.959 6.65601C149.225 6.65601 150.137 7.25813 150.137 8.47819C150.137 8.61717 150.09 8.9414 150.044 9.1112L148.901 14.2998H148.098Z" fill="#6F6F6F"></path>
              <path fill-rule="evenodd" clip-rule="evenodd" d="M158.213 10.1923C158.228 10.115 158.228 9.94518 158.228 9.85252C158.228 8.40089 157.348 7.35087 155.742 7.35087C154.244 7.35087 152.916 8.66347 152.653 10.1923H158.213ZM151.696 11.1958C151.696 8.70965 153.518 6.65576 155.834 6.65576C157.826 6.65576 159 8.06107 159 9.8832C159 10.2075 158.923 10.6399 158.877 10.8252H152.576C152.561 10.9178 152.545 11.1186 152.545 11.2576C152.545 12.6319 153.457 13.7901 155.278 13.7901C156.035 13.7901 156.885 13.5276 157.533 12.987L157.842 13.5738C157.178 14.0835 156.22 14.4851 155.248 14.4851C153.009 14.4851 151.696 13.1415 151.696 11.1958Z" fill="#6F6F6F"></path>
              <path fill-rule="evenodd" clip-rule="evenodd" d="M82.6329 4.37476H81.4064L83.783 9.06866L79 14.2824H80.2266L85.0096 9.06866L82.6329 4.37476Z" fill="#F0B9A1"></path>
              <path fill-rule="evenodd" clip-rule="evenodd" d="M85.4168 7.65753L83.7977 4.37476H82.6329L85.0094 9.06866L80.2266 14.2824H81.4164L86.1656 9.10542L85.4168 7.65753Z" fill="#EA8F6B"></path>
              <path fill-rule="evenodd" clip-rule="evenodd" d="M88.3419 9.20059L87.544 7.65753L85.9249 4.37476H84.7351L86.3542 7.65753L87.1521 9.20059L85.7601 10.762L82.5813 14.2824H83.7711L86.9499 10.762L88.3419 9.20059Z" fill="#DF582E"></path>
              <path fill-rule="evenodd" clip-rule="evenodd" d="M87.2879 9.20059L86.49 7.65753L84.8709 4.37476H83.6692L86.0458 9.06872L86.0121 9.10542L86.0613 9.20059L84.6693 10.762L81.4905 14.2824H82.717L85.8958 10.762L87.2879 9.20059Z" fill="#DF582E"></path>
              <path fill-rule="evenodd" clip-rule="evenodd" d="M86.1354 9.16518L86.0859 9.06934L81.3032 14.2826H81.5325L84.7336 10.7375L86.1354 9.16518Z" fill="#DF582E"></path>
              <path fill-rule="evenodd" clip-rule="evenodd" d="M92.9879 4.36719H90.3487L87.8726 7.22094L88.7901 9.00735L92.9879 4.36719Z" fill="#636363"></path>
              <path fill-rule="evenodd" clip-rule="evenodd" d="M87.1545 11.2748L88.7069 14.3086H91.0747L88.6964 9.58838L87.1545 11.2748Z" fill="#636363"></path>
              <path d="M20.22 14.12C19.804 14.12 19.436 14.088 19.116 14.024C18.804 13.96 18.508 13.864 18.228 13.736V12.68C18.468 12.808 18.752 12.924 19.08 13.028C19.416 13.132 19.8 13.184 20.232 13.184C20.592 13.184 20.924 13.128 21.228 13.016C21.532 12.904 21.776 12.732 21.96 12.5C22.144 12.268 22.236 11.968 22.236 11.6C22.236 11.28 22.128 11.008 21.912 10.784C21.704 10.552 21.34 10.288 20.82 9.992C20.516 9.808 20.244 9.62 20.004 9.428C19.772 9.228 19.588 9 19.452 8.744C19.324 8.48 19.26 8.164 19.26 7.796C19.26 7.268 19.388 6.82 19.644 6.452C19.9 6.076 20.24 5.792 20.664 5.6C21.096 5.408 21.568 5.312 22.08 5.312C22.528 5.312 22.92 5.356 23.256 5.444C23.6 5.532 23.924 5.656 24.228 5.816L23.82 6.728C23.612 6.616 23.352 6.512 23.04 6.416C22.728 6.312 22.408 6.26 22.08 6.26C21.592 6.26 21.188 6.388 20.868 6.644C20.556 6.9 20.4 7.26 20.4 7.724C20.4 7.964 20.444 8.168 20.532 8.336C20.62 8.496 20.756 8.644 20.94 8.78C21.124 8.908 21.352 9.056 21.624 9.224C21.968 9.432 22.268 9.636 22.524 9.836C22.788 10.036 22.992 10.268 23.136 10.532C23.288 10.796 23.364 11.124 23.364 11.516C23.364 12.372 23.076 13.02 22.5 13.46C21.932 13.9 21.172 14.12 20.22 14.12ZM26.9626 14.12C26.2186 14.12 25.6426 13.904 25.2346 13.472C24.8346 13.032 24.6346 12.44 24.6346 11.696C24.6346 11.184 24.7066 10.68 24.8506 10.184C25.0026 9.68 25.2186 9.224 25.4986 8.816C25.7786 8.4 26.1146 8.068 26.5066 7.82C26.9066 7.572 27.3546 7.448 27.8506 7.448C28.4586 7.448 28.9146 7.58 29.2186 7.844C29.5306 8.108 29.6866 8.476 29.6866 8.948C29.6866 9.364 29.5546 9.744 29.2906 10.088C29.0346 10.432 28.6306 10.708 28.0786 10.916C27.5266 11.116 26.8106 11.216 25.9306 11.216H25.7266C25.7186 11.288 25.7106 11.364 25.7026 11.444C25.7026 11.524 25.7026 11.596 25.7026 11.66C25.7026 12.148 25.8226 12.536 26.0626 12.824C26.3026 13.104 26.6666 13.244 27.1546 13.244C27.4586 13.244 27.7466 13.2 28.0186 13.112C28.2906 13.024 28.5866 12.904 28.9066 12.752V13.652C28.6026 13.788 28.3026 13.9 28.0066 13.988C27.7186 14.076 27.3706 14.12 26.9626 14.12ZM25.9666 10.364C26.4466 10.364 26.8906 10.324 27.2986 10.244C27.7066 10.156 28.0346 10.016 28.2826 9.824C28.5306 9.624 28.6546 9.36 28.6546 9.032C28.6546 8.824 28.5826 8.656 28.4386 8.528C28.3026 8.392 28.0866 8.324 27.7906 8.324C27.4066 8.324 27.0346 8.504 26.6746 8.864C26.3226 9.216 26.0586 9.716 25.8826 10.364H25.9666ZM33.0109 14.12C32.2989 14.12 31.7229 13.92 31.2829 13.52C30.8429 13.12 30.6229 12.52 30.6229 11.72C30.6229 11.144 30.6989 10.6 30.8509 10.088C31.0109 9.568 31.2349 9.112 31.5229 8.72C31.8189 8.328 32.1749 8.02 32.5909 7.796C33.0069 7.564 33.4709 7.448 33.9829 7.448C34.2629 7.448 34.5429 7.476 34.8229 7.532C35.1029 7.588 35.3549 7.664 35.5789 7.76L35.2789 8.636C35.1189 8.564 34.9269 8.496 34.7029 8.432C34.4869 8.368 34.2509 8.336 33.9949 8.336C33.5389 8.336 33.1389 8.492 32.7949 8.804C32.4509 9.108 32.1829 9.516 31.9909 10.028C31.7989 10.54 31.7029 11.1 31.7029 11.708C31.7029 12.196 31.8269 12.576 32.0749 12.848C32.3309 13.112 32.6789 13.244 33.1189 13.244C33.3989 13.244 33.6629 13.204 33.9109 13.124C34.1669 13.044 34.4189 12.952 34.6669 12.848V13.736C34.4429 13.848 34.1909 13.94 33.9109 14.012C33.6389 14.084 33.3389 14.12 33.0109 14.12ZM37.7524 14.12C37.2644 14.12 36.8724 13.984 36.5764 13.712C36.2884 13.44 36.1444 13.044 36.1444 12.524C36.1444 12.34 36.1564 12.168 36.1804 12.008C36.2124 11.84 36.2444 11.668 36.2764 11.492L37.1164 7.568H38.1844L37.3204 11.612C37.2484 11.956 37.2124 12.224 37.2124 12.416C37.2124 12.672 37.2764 12.876 37.4044 13.028C37.5404 13.172 37.7564 13.244 38.0524 13.244C38.3244 13.244 38.6164 13.148 38.9284 12.956C39.2484 12.764 39.5444 12.456 39.8164 12.032C40.0884 11.608 40.3004 11.044 40.4524 10.34L41.0404 7.568H42.0844L40.7164 14H39.8524L39.9844 12.812H39.9244C39.7724 13.004 39.5924 13.204 39.3844 13.412C39.1844 13.612 38.9484 13.78 38.6764 13.916C38.4124 14.052 38.1044 14.12 37.7524 14.12ZM42.7696 14L44.1376 7.568H45.0016L44.8696 8.756H44.9296C45.0976 8.532 45.2736 8.324 45.4576 8.132C45.6416 7.932 45.8496 7.768 46.0816 7.64C46.3136 7.512 46.5816 7.448 46.8856 7.448C46.9976 7.448 47.1136 7.456 47.2336 7.472C47.3616 7.48 47.4776 7.5 47.5816 7.532L47.3536 8.48C47.1376 8.432 46.9336 8.408 46.7416 8.408C46.3416 8.408 45.9856 8.54 45.6736 8.804C45.3616 9.068 45.1016 9.404 44.8936 9.812C44.6856 10.22 44.5376 10.636 44.4496 11.06L43.8256 14H42.7696ZM49.8845 14.12C49.1405 14.12 48.5645 13.904 48.1565 13.472C47.7565 13.032 47.5565 12.44 47.5565 11.696C47.5565 11.184 47.6285 10.68 47.7725 10.184C47.9245 9.68 48.1405 9.224 48.4205 8.816C48.7005 8.4 49.0365 8.068 49.4285 7.82C49.8285 7.572 50.2765 7.448 50.7725 7.448C51.3805 7.448 51.8365 7.58 52.1405 7.844C52.4525 8.108 52.6085 8.476 52.6085 8.948C52.6085 9.364 52.4765 9.744 52.2125 10.088C51.9565 10.432 51.5525 10.708 51.0005 10.916C50.4485 11.116 49.7325 11.216 48.8525 11.216H48.6485C48.6405 11.288 48.6325 11.364 48.6245 11.444C48.6245 11.524 48.6245 11.596 48.6245 11.66C48.6245 12.148 48.7445 12.536 48.9845 12.824C49.2245 13.104 49.5885 13.244 50.0765 13.244C50.3805 13.244 50.6685 13.2 50.9405 13.112C51.2125 13.024 51.5085 12.904 51.8285 12.752V13.652C51.5245 13.788 51.2245 13.9 50.9285 13.988C50.6405 14.076 50.2925 14.12 49.8845 14.12ZM48.8885 10.364C49.3685 10.364 49.8125 10.324 50.2205 10.244C50.6285 10.156 50.9565 10.016 51.2045 9.824C51.4525 9.624 51.5765 9.36 51.5765 9.032C51.5765 8.824 51.5045 8.656 51.3605 8.528C51.2245 8.392 51.0085 8.324 50.7125 8.324C50.3285 8.324 49.9565 8.504 49.5965 8.864C49.2445 9.216 48.9805 9.716 48.8045 10.364H48.8885ZM55.2848 14.12C54.7728 14.12 54.3528 13.936 54.0248 13.568C53.7048 13.2 53.5448 12.652 53.5448 11.924C53.5448 11.332 53.6168 10.772 53.7607 10.244C53.9048 9.708 54.1128 9.232 54.3848 8.816C54.6648 8.392 54.9968 8.06 55.3808 7.82C55.7728 7.58 56.2128 7.46 56.7008 7.46C57.1328 7.46 57.4768 7.572 57.7328 7.796C57.9968 8.012 58.1928 8.268 58.3208 8.564H58.3808C58.4208 8.292 58.4568 8.032 58.4888 7.784C58.5288 7.536 58.5808 7.268 58.6448 6.98L59.0888 4.88H60.1328L58.2008 14H57.3368L57.4688 12.812H57.4208C57.1328 13.172 56.8168 13.48 56.4728 13.736C56.1288 13.992 55.7328 14.12 55.2848 14.12ZM55.6448 13.244C55.9088 13.244 56.1768 13.148 56.4488 12.956C56.7208 12.756 56.9728 12.488 57.2048 12.152C57.4368 11.816 57.6208 11.432 57.7568 11C57.9008 10.568 57.9728 10.112 57.9728 9.632C57.9728 9.248 57.8768 8.936 57.6848 8.696C57.5008 8.456 57.1968 8.336 56.7728 8.336C56.4528 8.336 56.1608 8.44 55.8968 8.648C55.6408 8.848 55.4168 9.12 55.2248 9.464C55.0328 9.808 54.8848 10.196 54.7808 10.628C54.6768 11.06 54.6248 11.5 54.6248 11.948C54.6248 12.812 54.9648 13.244 55.6448 13.244ZM66.2632 14.12C65.8312 14.12 65.4792 14.012 65.2072 13.796C64.9432 13.572 64.7472 13.312 64.6192 13.016H64.5592L64.1632 14H63.3712L65.3032 4.88H66.3592L65.9032 7.04C65.8472 7.312 65.7832 7.58 65.7112 7.844C65.6472 8.1 65.5912 8.316 65.5432 8.492C65.4952 8.66 65.4672 8.752 65.4592 8.768H65.5072C65.7952 8.416 66.1072 8.112 66.4432 7.856C66.7872 7.592 67.1832 7.46 67.6312 7.46C68.1592 7.46 68.5832 7.644 68.9032 8.012C69.2312 8.38 69.3952 8.924 69.3952 9.644C69.3952 10.228 69.3232 10.788 69.1792 11.324C69.0352 11.86 68.8272 12.34 68.5552 12.764C68.2832 13.18 67.9552 13.512 67.5712 13.76C67.1872 14 66.7512 14.12 66.2632 14.12ZM66.1792 13.244C66.4992 13.244 66.7912 13.144 67.0552 12.944C67.3192 12.736 67.5432 12.46 67.7272 12.116C67.9192 11.772 68.0632 11.384 68.1592 10.952C68.2632 10.52 68.3152 10.08 68.3152 9.632C68.3152 8.768 67.9752 8.336 67.2952 8.336C67.0312 8.336 66.7592 8.436 66.4792 8.636C66.2072 8.828 65.9552 9.096 65.7232 9.44C65.4912 9.776 65.3032 10.16 65.1592 10.592C65.0232 11.024 64.9552 11.476 64.9552 11.948C64.9552 12.332 65.0552 12.644 65.2552 12.884C65.4552 13.124 65.7632 13.244 66.1792 13.244ZM69.45 16.88C69.258 16.88 69.102 16.868 68.982 16.844C68.854 16.82 68.734 16.792 68.622 16.76V15.908C68.734 15.94 68.854 15.964 68.982 15.98C69.11 16.004 69.246 16.016 69.39 16.016C69.718 16.016 69.994 15.916 70.218 15.716C70.45 15.516 70.67 15.224 70.878 14.84L71.298 14.096L70.326 7.568H71.382L71.802 10.748C71.842 11.004 71.87 11.288 71.886 11.6C71.91 11.904 71.926 12.196 71.934 12.476C71.95 12.748 71.958 12.968 71.958 13.136H71.994C72.05 13.008 72.13 12.816 72.234 12.56C72.346 12.304 72.466 12.04 72.594 11.768C72.722 11.496 72.834 11.272 72.93 11.096L74.802 7.568H75.93L71.85 15.08C71.53 15.68 71.19 16.128 70.83 16.424C70.478 16.728 70.018 16.88 69.45 16.88Z" fill="#9B9B9B"></path>
              <defs>
                <clipPath id="clip0">
                  <rect width="12" height="15" fill="white"></rect>
                </clipPath>
              </defs>
              </svg>
