<svg id="Layer_1" data-name="Layer 1" xmlns="http://www.w3.org/2000/svg" viewBox="0 0 159 18"><defs><style>.cls-1{fill:#e0e0e0;}.cls-2{fill:#21af88;}.cls-3{fill:#f5bda7;}.cls-4{fill:#f6956f;}.cls-5{fill:#ef5f26;}.cls-6{fill:#d0d0cf;}</style></defs><path class="cls-1" d="M20.22,14.12a5.16,5.16,0,0,1-1.1-.1,4.2,4.2,0,0,1-.89-.28V12.68a5.33,5.33,0,0,0,.85.35,4.06,4.06,0,0,0,1.15.15,3,3,0,0,0,1-.16A1.71,1.71,0,0,0,22,12.5a1.42,1.42,0,0,0,.28-.9,1.14,1.14,0,0,0-.33-.82A4.72,4.72,0,0,0,20.82,10,7.81,7.81,0,0,1,20,9.43a2.43,2.43,0,0,1-.55-.69,2.1,2.1,0,0,1-.19-.94,2.36,2.36,0,0,1,.38-1.35,2.49,2.49,0,0,1,1-.85,3.53,3.53,0,0,1,1.42-.29,5.13,5.13,0,0,1,1.18.13,4.77,4.77,0,0,1,1,.38l-.41.91A4.22,4.22,0,0,0,23,6.42a2.85,2.85,0,0,0-1-.16,1.9,1.9,0,0,0-1.21.38,1.34,1.34,0,0,0-.47,1.08,1.32,1.32,0,0,0,.13.62,1.53,1.53,0,0,0,.41.44c.18.13.41.28.68.44a8.19,8.19,0,0,1,.9.62,2.24,2.24,0,0,1,.62.69,2,2,0,0,1,.22,1,2.28,2.28,0,0,1-.86,1.94A3.63,3.63,0,0,1,20.22,14.12Zm6.74,0a2.28,2.28,0,0,1-1.73-.65,2.53,2.53,0,0,1-.6-1.77,5.59,5.59,0,0,1,.22-1.52,4.75,4.75,0,0,1,.65-1.36,3.32,3.32,0,0,1,1-1,2.46,2.46,0,0,1,1.34-.37,2.07,2.07,0,0,1,1.37.39A1.4,1.4,0,0,1,29.69,9a1.88,1.88,0,0,1-.4,1.14,2.68,2.68,0,0,1-1.21.83,6.42,6.42,0,0,1-2.15.3h-.2l0,.22v.22a1.73,1.73,0,0,0,.36,1.16,1.37,1.37,0,0,0,1.09.42,2.73,2.73,0,0,0,.87-.13,8.32,8.32,0,0,0,.89-.36v.9A7.77,7.77,0,0,1,28,14,3.58,3.58,0,0,1,27,14.12Zm-1-3.76a6.92,6.92,0,0,0,1.33-.12,2.21,2.21,0,0,0,1-.42A1,1,0,0,0,28.65,9a.64.64,0,0,0-.21-.5.88.88,0,0,0-.65-.21,1.6,1.6,0,0,0-1.12.54,3.44,3.44,0,0,0-.79,1.5Zm7,3.76a2.48,2.48,0,0,1-1.73-.6,2.31,2.31,0,0,1-.66-1.8,5.73,5.73,0,0,1,.23-1.63,4.49,4.49,0,0,1,.67-1.37,3.24,3.24,0,0,1,1.07-.92A2.74,2.74,0,0,1,34,7.45a4.78,4.78,0,0,1,.84.08,4,4,0,0,1,.76.23l-.3.88a3.8,3.8,0,0,0-.58-.21A2.6,2.6,0,0,0,34,8.34a1.75,1.75,0,0,0-1.2.46A3.09,3.09,0,0,0,32,10a4.78,4.78,0,0,0-.29,1.68,1.66,1.66,0,0,0,.37,1.14,1.42,1.42,0,0,0,1,.39,2.56,2.56,0,0,0,.79-.12c.26-.08.51-.17.76-.27v.89a4,4,0,0,1-.76.27A3.58,3.58,0,0,1,33,14.12Zm4.74,0a1.65,1.65,0,0,1-1.17-.41,1.55,1.55,0,0,1-.44-1.19,4.06,4.06,0,0,1,0-.51c0-.17.06-.34.1-.52l.84-3.92h1.06l-.86,4a4.44,4.44,0,0,0-.11.81,1,1,0,0,0,.19.61.89.89,0,0,0,.65.21,1.7,1.7,0,0,0,.88-.28,3,3,0,0,0,.89-.93,5.15,5.15,0,0,0,.63-1.69L41,7.57h1L40.72,14h-.87L40,12.81h-.06a7,7,0,0,1-.54.6,2.8,2.8,0,0,1-.7.51A2.12,2.12,0,0,1,37.75,14.12Zm5-.12,1.37-6.43H45l-.13,1.19h.06a5.51,5.51,0,0,1,.53-.63,2.44,2.44,0,0,1,.62-.49,1.62,1.62,0,0,1,.81-.19l.34,0a1.7,1.7,0,0,1,.35.06l-.23,1a2.66,2.66,0,0,0-.61-.07,1.64,1.64,0,0,0-1.07.39,3.32,3.32,0,0,0-.78,1,5.49,5.49,0,0,0-.44,1.25L43.83,14Zm7.11.12a2.25,2.25,0,0,1-1.72-.65,2.53,2.53,0,0,1-.6-1.77,5.58,5.58,0,0,1,.21-1.52,4.75,4.75,0,0,1,.65-1.36,3.43,3.43,0,0,1,1-1,2.48,2.48,0,0,1,1.34-.37,2.05,2.05,0,0,1,1.37.39A1.4,1.4,0,0,1,52.61,9a1.82,1.82,0,0,1-.4,1.14,2.62,2.62,0,0,1-1.21.83,6.42,6.42,0,0,1-2.15.3h-.2l0,.22v.22A1.73,1.73,0,0,0,49,12.82a1.37,1.37,0,0,0,1.1.42,2.71,2.71,0,0,0,.86-.13,8.32,8.32,0,0,0,.89-.36v.9a7.77,7.77,0,0,1-.9.34A3.58,3.58,0,0,1,49.88,14.12Zm-1-3.76a6.92,6.92,0,0,0,1.33-.12,2.16,2.16,0,0,0,1-.42A1,1,0,0,0,51.58,9a.65.65,0,0,0-.22-.5.88.88,0,0,0-.65-.21,1.58,1.58,0,0,0-1.11.54,3.35,3.35,0,0,0-.8,1.5Zm6.39,3.76A1.61,1.61,0,0,1,54,13.57a2.46,2.46,0,0,1-.48-1.65,6.55,6.55,0,0,1,.22-1.68,4.82,4.82,0,0,1,.62-1.42,3.29,3.29,0,0,1,1-1,2.47,2.47,0,0,1,1.32-.36,1.47,1.47,0,0,1,1,.34,2,2,0,0,1,.59.76h.06c0-.27.08-.53.11-.78s.09-.51.15-.8l.45-2.1h1L58.2,14h-.86l.13-1.19h0a5.21,5.21,0,0,1-1,.93A2,2,0,0,1,55.28,14.12Zm.36-.88a1.39,1.39,0,0,0,.81-.28,3.28,3.28,0,0,0,.75-.81A4.1,4.1,0,0,0,57.76,11,4.41,4.41,0,0,0,58,9.63a1.4,1.4,0,0,0-.29-.93,1.06,1.06,0,0,0-.91-.36,1.35,1.35,0,0,0-.87.31,2.76,2.76,0,0,0-.68.81,4.65,4.65,0,0,0-.44,1.17A5.81,5.81,0,0,0,54.62,12Q54.62,13.24,55.64,13.24Zm10.62.88a1.66,1.66,0,0,1-1.05-.32,2.18,2.18,0,0,1-.59-.78h-.06l-.4,1h-.79L65.3,4.88h1.06L65.9,7c-.05.27-.12.54-.19.8s-.12.48-.17.65a1.94,1.94,0,0,1-.08.28h.05a5.69,5.69,0,0,1,.93-.91,1.88,1.88,0,0,1,1.19-.4A1.59,1.59,0,0,1,68.9,8a2.37,2.37,0,0,1,.5,1.63,6.55,6.55,0,0,1-.22,1.68,4.94,4.94,0,0,1-.62,1.44,3.37,3.37,0,0,1-1,1A2.41,2.41,0,0,1,66.26,14.12Zm-.08-.88a1.44,1.44,0,0,0,.88-.3,2.64,2.64,0,0,0,.67-.82A4.64,4.64,0,0,0,68.16,11a5.81,5.81,0,0,0,.16-1.32q0-1.29-1-1.29a1.41,1.41,0,0,0-.82.3,3.26,3.26,0,0,0-.76.8,4.55,4.55,0,0,0-.56,1.15A4.39,4.39,0,0,0,65,12a1.4,1.4,0,0,0,.3.93A1.12,1.12,0,0,0,66.18,13.24Zm3.27,3.64a2.05,2.05,0,0,1-.47,0l-.36-.08v-.85L69,16a2.71,2.71,0,0,0,.41,0,1.21,1.21,0,0,0,.83-.3,3.25,3.25,0,0,0,.66-.88l.42-.74-1-6.53h1l.42,3.18c0,.25.07.54.09.85s0,.6,0,.88,0,.49,0,.66h0c.06-.13.14-.32.24-.58l.36-.79c.13-.27.24-.5.34-.67L74.8,7.57h1.13l-4.08,7.51a4.3,4.3,0,0,1-1,1.34A2,2,0,0,1,69.45,16.88Z"/><path class="cls-2" d="M10.24,6.75H9.31V3.37A3.21,3.21,0,0,0,6,.24H5.21A3.21,3.21,0,0,0,1.87,3.32V6.75H.94A.94.94,0,0,0,0,7.69v6.64a.94.94,0,0,0,.94.93h9.28a.94.94,0,0,0,.94-.93V7.66A.94.94,0,0,0,10.24,6.75ZM3.59,3.81a2,2,0,0,1,2-1.93h0A2,2,0,0,1,7,2.45,1.87,1.87,0,0,1,7.63,3.8v3h-4Zm2.68,6.68v1.8a.67.67,0,0,1-1.34,0v-1.8a1.17,1.17,0,0,1-.56-.94A1.21,1.21,0,0,1,5.56,8.34h.06A1.19,1.19,0,0,1,6.84,9.51,1.15,1.15,0,0,1,6.27,10.49Z"/><polygon class="cls-3" points="82.23 4.34 81 4.34 83.39 9.06 78.58 14.3 79.82 14.3 84.62 9.06 82.23 4.34"/><polygon class="cls-4" points="85.03 7.64 83.41 4.34 82.23 4.34 84.62 9.06 79.82 14.3 81.01 14.3 85.78 9.1 85.03 7.64"/><polygon class="cls-5" points="88.13 9.2 87.33 7.64 85.71 4.34 84.51 4.34 86.14 7.64 86.94 9.2 85.54 10.76 82.35 14.3 83.54 14.3 86.73 10.76 88.13 9.2"/><polygon class="cls-5" points="87 9.2 86.2 7.64 84.58 4.34 83.37 4.34 85.75 9.06 85.72 9.1 85.76 9.2 84.37 10.76 81.18 14.3 82.41 14.3 85.6 10.76 87 9.2"/><polygon class="cls-5" points="85.8 9.16 85.75 9.06 80.95 14.3 81.18 14.3 84.39 10.74 85.8 9.16"/><polygon class="cls-1" points="92.68 4.34 90.03 4.34 87.55 7.21 88.47 9.01 92.68 4.34"/><polygon class="cls-1" points="86.83 11.28 88.38 14.33 90.76 14.33 88.37 9.58 86.83 11.28"/><path class="cls-1" d="M94.53,13.32l-.85,3.84h-2L94,6.82h1.92l-.21,1A2.89,2.89,0,0,1,98,6.65a2.79,2.79,0,0,1,2.87,3.11c0,2.25-1.4,4.8-3.94,4.8a2.83,2.83,0,0,1-2.39-1.18m4.26-3.18a1.62,1.62,0,0,0-1.42-1.8h-.23a2.25,2.25,0,0,0-1.7.9l-.59,2.55a2,2,0,0,0,1.8,1,2.4,2.4,0,0,0,2.2-2.6h0"/><path class="cls-1" d="M101.38,14.32l1.67-7.49H105l-.22,1a3.3,3.3,0,0,1,2.65-1.17L107,8.53a3.37,3.37,0,0,0-.71-.09,2.57,2.57,0,0,0-1.86.9l-1,5Z"/><path class="cls-1" d="M107.26,11.13a4.37,4.37,0,0,1,4.25-4.49h.08a3.15,3.15,0,0,1,3.36,3,2.41,2.41,0,0,1,0,.38,5.13,5.13,0,0,1-.15,1.24h-5.56v.19c0,.64.66,1.49,2.06,1.49a3.28,3.28,0,0,0,1.92-.55l.6,1.38a4.72,4.72,0,0,1-2.65.78c-2.36,0-3.88-1.27-3.88-3.37m5.93-1.28a.38.38,0,0,0,0-.15c0-.76-.57-1.44-1.74-1.44a2,2,0,0,0-2,1.59h3.76Z"/><path class="cls-1" d="M115.28,13.16l1.1-1.38A3.89,3.89,0,0,0,119,13c.67,0,1.09-.37,1.09-.78,0-1-3.83-.77-3.83-3,0-1.31,1.08-2.53,3.09-2.53a4.53,4.53,0,0,1,3.19,1.21l-1,1.32a3,3,0,0,0-2.19-1c-.7,0-1.09.31-1.09.7,0,.91,3.84.71,3.84,3,0,1.43-1.19,2.62-3.24,2.62a4.87,4.87,0,0,1-3.52-1.34"/><path class="cls-1" d="M122.87,13.16l1.1-1.38A3.89,3.89,0,0,0,126.59,13c.67,0,1.08-.37,1.08-.78,0-1-3.83-.77-3.83-3,0-1.31,1.09-2.53,3.08-2.53a4.55,4.55,0,0,1,3.19,1.21l-1,1.32a3,3,0,0,0-2.2-1c-.69,0-1.09.31-1.09.7,0,.91,3.84.71,3.84,3,0,1.43-1.2,2.62-3.24,2.62a4.87,4.87,0,0,1-3.52-1.34"/><polygon class="cls-6" points="130.81 14.32 133.09 3.97 133.9 3.97 131.62 14.32 130.81 14.32"/><path class="cls-6" d="M141,8.09l.27-1.26h.82l-1.66,7.49h-.82l.26-1.13a3.24,3.24,0,0,1-2.57,1.31,2.8,2.8,0,0,1-2.94-2.67,1.79,1.79,0,0,1,0-.4c0-2.53,1.56-4.79,3.94-4.79A3.06,3.06,0,0,1,141,8.09m-5.75,3.19a2.24,2.24,0,0,0,2,2.48h.3a3.16,3.16,0,0,0,2.54-1.44l.8-3.59a2.72,2.72,0,0,0-2.48-1.38c-1.87,0-3.12,1.92-3.12,3.92"/><path class="cls-6" d="M148,14.32l1.12-5.09a3.35,3.35,0,0,0,.08-.54c0-1-.71-1.33-1.66-1.33A3.92,3.92,0,0,0,145,8.67l-1.25,5.65H143l1.62-7.49h.81L145.2,8a4.14,4.14,0,0,1,2.7-1.33c1.27,0,2.19.61,2.19,1.84a2.84,2.84,0,0,1-.1.64l-1.15,5.21Z"/><path class="cls-6" d="M151.65,11.2a4.36,4.36,0,0,1,4.16-4.56h0A3,3,0,0,1,159,9.55c0,.12,0,.25,0,.38a5,5,0,0,1-.12,1h-6.34v.44a2.48,2.48,0,0,0,2.5,2.45h.22a3.58,3.58,0,0,0,2.26-.8l.32.59a4.49,4.49,0,0,1-2.61.91c-2.24,0-3.57-1.34-3.57-3.3m6.55-1V9.81a2.32,2.32,0,0,0-2.13-2.51h-.36a3.39,3.39,0,0,0-3.11,2.88h5.59Z"/></svg>